<svg xmlns="http://www.w3.org/2000/svg" width="80" height="80" viewBox="0 0 80 80">
  <path fill="#292f36" fill-rule="evenodd" d="M40,80 C62.09139,80 80,62.09139 80,40 C80,17.90861 62.09139,0 40,0 C17.90861,0 0,17.90861 0,40 C0,62.09139 17.90861,80 40,80 Z M11.427301,36.4223224 C6.22932814,36.4223239 1.88235294,40.6462003 1.88235294,45.8577572 C1.88235294,51.0693151 6.09614353,55.2941176 11.2941176,55.2941176 C16.4920918,55.2941176 20.7058824,51.0693151 20.7058824,45.8577572 L20.7058824,24.7058824 C15.5079082,24.7058824 11.2941176,29.194735 11.2941176,34.7320153 C11.2941176,35.3080899 11.3397253,35.8728169 11.4273039,36.4223224 L11.427301,36.4223224 Z M41.8551746,49.3441553 C41.8642311,49.344172 41.8823529,36.4705882 41.8823529,36.4705882 C37.2853184,36.4705882 33.4392831,38.6160028 32.4705882,41.4880758 C31.5018934,38.6160028 27.6558581,36.4705882 23.0588235,36.4705882 L23.0588235,49.3441805 C23.4473581,52.5683882 27.3685125,55.1306188 32.2352885,55.2865932 C32.3139489,55.2941176 32.6272275,55.2941176 32.7058824,55.2941176 C37.5726635,55.1306191 41.4938184,52.5683882 41.8551746,49.3441553 Z M53.6470587,50.1680786 C54.545533,53.1028606 58.5054832,55.2941176 63.0588235,55.2941176 C63.0588235,55.2941176 63.0411435,42.4205339 63.032308,42.4205506 C62.6684706,39.0930193 58.6055588,36.4705882 53.6470588,36.4705882 C48.4490847,36.4705882 44.2352941,40.6843788 44.2352941,45.8823529 C44.2352941,51.0803271 48.4490847,55.2941176 53.6470588,55.2941176 L53.6470588,50.168079 L53.6470587,50.1680786 Z M65.4117647,45.5788221 C65.4117647,50.9444315 69.6255553,55.2941176 74.8235294,55.2941176 L74.8235294,34.6552815 C74.8235294,29.1603801 70.6097388,24.7058824 65.4117647,24.7058824 L65.4117647,45.5788221 Z"/>
</svg>
